<svg width="88" height="88" viewBox="0 0 88 88" fill="none" xmlns="http://www.w3.org/2000/svg">
<g filter="url(#filter0_d_20_262)">
<rect x="4" width="80" height="80" rx="8" fill="#493B75" shape-rendering="crispEdges"/>
<path d="M52.3906 38.7949H53.6562V54H52.3906V38.7949ZM57.4531 38.7949H58.7188V54H57.4531V38.7949ZM54.9219 38.7949H56.1875V54H54.9219V38.7949ZM51.125 38.7949V54C48.8984 54.8438 46.5898 55.2656 44.1992 55.2656C42.125 55.2656 40.1387 54.8848 38.2402 54.123C36.3418 53.3613 34.6719 52.3066 33.2305 50.959C31.7891 49.5996 30.6348 47.9238 29.7676 45.9316C28.9121 43.9277 28.4844 41.7656 28.4844 39.4453C28.4844 37.3008 28.9004 35.2559 29.7324 33.3105C30.5762 31.3535 31.7012 29.6719 33.1074 28.2656C34.5254 26.8477 36.207 25.7227 38.1523 24.8906C40.1094 24.0469 42.1602 23.625 44.3047 23.625C46.9766 23.625 49.4609 24.2461 51.7578 25.4883C54.0547 26.7305 55.9297 28.418 57.3828 30.5508L56.3281 31.2363C54.9922 29.2793 53.2637 27.7324 51.1426 26.5957C49.0332 25.459 46.7539 24.8906 44.3047 24.8906C42.3359 24.8906 40.4492 25.2773 38.6445 26.0508C36.8516 26.8125 35.3047 27.8438 34.0039 29.1445C32.7031 30.4453 31.666 31.998 30.8926 33.8027C30.1309 35.5957 29.75 37.4766 29.75 39.4453C29.75 41.5664 30.1426 43.5469 30.9277 45.3867C31.7246 47.2266 32.7793 48.7676 34.0918 50.0098C35.416 51.252 36.9512 52.2305 38.6973 52.9453C40.4434 53.6484 42.2598 54 44.1465 54C46.127 54 48.0312 53.6895 49.8594 53.0684V51.8555C48.1133 52.4414 46.2793 52.7344 44.3574 52.7344C42.9629 52.7344 41.6035 52.541 40.2793 52.1543C38.9668 51.7559 37.748 51.1758 36.623 50.4141C35.5098 49.6406 34.5312 48.7266 33.6875 47.6719C32.8555 46.6055 32.1992 45.3691 31.7188 43.9629C31.25 42.5449 31.0156 41.0391 31.0156 39.4453C31.0156 37.043 31.6074 34.8223 32.791 32.7832C33.9863 30.7441 35.6035 29.1328 37.6426 27.9492C39.6816 26.7539 41.9023 26.1562 44.3047 26.1562C46.5547 26.1562 48.6465 26.6836 50.5801 27.7383C52.5137 28.7812 54.0898 30.1992 55.3086 31.9922L54.2539 32.6777C53.1523 31.0605 51.7227 29.7832 49.9648 28.8457C48.2188 27.8965 46.332 27.4219 44.3047 27.4219C42.6758 27.4219 41.1172 27.7383 39.6289 28.3711C38.1406 29.0039 36.8574 29.8594 35.7793 30.9375C34.7129 32.0039 33.8633 33.2812 33.2305 34.7695C32.5977 36.2578 32.2812 37.8164 32.2812 39.4453C32.2812 40.9102 32.4922 42.2871 32.9141 43.5762C33.3477 44.8535 33.9395 45.9727 34.6895 46.9336C35.4512 47.8828 36.3359 48.7031 37.3438 49.3945C38.3516 50.0742 39.4473 50.5898 40.6309 50.9414C41.8262 51.293 43.0508 51.4688 44.3047 51.4688C46.25 51.4688 48.1016 51.1406 49.8594 50.4844V49.2188C48.125 49.8867 46.3145 50.2207 44.4277 50.2207C42.998 50.2207 41.6328 49.9805 40.332 49.5C39.0312 49.0078 37.8711 48.3164 36.8516 47.4258C35.8438 46.5352 35.041 45.3984 34.4434 44.0156C33.8457 42.6328 33.5469 41.1094 33.5469 39.4453C33.5469 37.5 34.0273 35.7012 34.9883 34.0488C35.9492 32.3965 37.2559 31.0898 38.9082 30.1289C40.5605 29.168 42.3594 28.6875 44.3047 28.6875C46.1211 28.6875 47.8086 29.1094 49.3672 29.9531C50.9375 30.7969 52.2148 31.9453 53.1992 33.3984L52.1445 34.084C51.2773 32.8184 50.1523 31.8164 48.7695 31.0781C47.3984 30.3281 45.9102 29.9531 44.3047 29.9531C42.582 29.9531 40.9941 30.3809 39.541 31.2363C38.0879 32.0801 36.9336 33.2285 36.0781 34.6816C35.2344 36.1348 34.8125 37.7227 34.8125 39.4453C34.8125 40.6406 34.9824 41.7539 35.3223 42.7852C35.6621 43.8164 36.1309 44.707 36.7285 45.457C37.3262 46.207 38.0234 46.8457 38.8203 47.373C39.6289 47.9004 40.4961 48.2988 41.4219 48.5684C42.3477 48.8262 43.3086 48.9551 44.3047 48.9551C46.2852 48.9551 48.1367 48.5625 49.8594 47.7773V46.5645C48.1953 47.3027 46.3965 47.6719 44.4629 47.6719C43.3496 47.6719 42.3008 47.502 41.3164 47.1621C40.332 46.8223 39.4414 46.3242 38.6445 45.668C37.8594 45.0117 37.2324 44.1504 36.7637 43.084C36.3066 42.0059 36.0781 40.793 36.0781 39.4453C36.0781 38.332 36.2949 37.2715 36.7285 36.2637C37.1621 35.2441 37.748 34.3652 38.4863 33.627C39.2246 32.8887 40.0977 32.3027 41.1055 31.8691C42.125 31.4355 43.1914 31.2188 44.3047 31.2188C45.6992 31.2188 46.9941 31.5469 48.1895 32.2031C49.3848 32.8477 50.3574 33.7266 51.1074 34.8398L50.0703 35.5254C49.4375 34.5879 48.6113 33.8496 47.5918 33.3105C46.584 32.7598 45.4883 32.4844 44.3047 32.4844C42.3828 32.4844 40.7422 33.1641 39.3828 34.5234C38.0234 35.8828 37.3438 37.5234 37.3438 39.4453C37.3438 40.6289 37.5371 41.6777 37.9238 42.5918C38.3105 43.4941 38.8379 44.2207 39.5059 44.7715C40.1855 45.3105 40.9355 45.7207 41.7559 46.002C42.5879 46.2715 43.4785 46.4062 44.4277 46.4062C46.373 46.4062 48.1836 46.002 49.8594 45.1934V38.7949H51.125Z" fill="white"/>
</g>
<defs>
<filter id="filter0_d_20_262" x="0" y="0" width="88" height="88" filterUnits="userSpaceOnUse" color-interpolation-filters="sRGB">
<feFlood flood-opacity="0" result="BackgroundImageFix"/>
<feColorMatrix in="SourceAlpha" type="matrix" values="0 0 0 0 0 0 0 0 0 0 0 0 0 0 0 0 0 0 127 0" result="hardAlpha"/>
<feOffset dy="4"/>
<feGaussianBlur stdDeviation="2"/>
<feComposite in2="hardAlpha" operator="out"/>
<feColorMatrix type="matrix" values="0 0 0 0 0 0 0 0 0 0 0 0 0 0 0 0 0 0 0.25 0"/>
<feBlend mode="normal" in2="BackgroundImageFix" result="effect1_dropShadow_20_262"/>
<feBlend mode="normal" in="SourceGraphic" in2="effect1_dropShadow_20_262" result="shape"/>
</filter>
</defs>
</svg>
